<svg width="27" height="27" viewBox="0 0 27 27" fill="none" xmlns="http://www.w3.org/2000/svg">
<path d="M10.9309 20.7686C10.6755 20.7691 10.428 20.6801 10.2313 20.5172C10.1206 20.4254 10.0291 20.3127 9.96207 20.1855C9.89501 20.0583 9.85369 19.9192 9.84049 19.776C9.82729 19.6328 9.84247 19.4885 9.88515 19.3512C9.92783 19.2139 9.99717 19.0864 10.0892 18.9759L14.9863 13.1169L10.2641 7.24705C10.1733 7.13524 10.1055 7.00658 10.0646 6.86848C10.0237 6.73038 10.0104 6.58556 10.0257 6.44233C10.0409 6.29911 10.0843 6.1603 10.1534 6.0339C10.2224 5.9075 10.3158 5.79599 10.4281 5.70579C10.5412 5.60628 10.6736 5.53122 10.8171 5.48532C10.9606 5.43942 11.112 5.42368 11.2619 5.43907C11.4117 5.45447 11.5568 5.50067 11.6879 5.57479C11.8191 5.6489 11.9335 5.74932 12.024 5.86975L17.3036 12.4283C17.4644 12.6239 17.5523 12.8692 17.5523 13.1224C17.5523 13.3756 17.4644 13.6209 17.3036 13.8165L11.8382 20.3751C11.7285 20.5073 11.5892 20.6119 11.4316 20.6803C11.2739 20.7487 11.1024 20.7789 10.9309 20.7686Z" fill="#1EE1B3"/>
</svg>
